<?xml version="1.0" standalone="no"?>
<!DOCTYPE svg PUBLIC "-//W3C//DTD SVG 20010904//EN"
 "http://www.w3.org/TR/2001/REC-SVG-20010904/DTD/svg10.dtd">
<svg version="1.0" xmlns="http://www.w3.org/2000/svg"
 width="1280.000000pt" height="1000.000000pt" viewBox="0 0 1280.000000 1000.000000"
 preserveAspectRatio="xMidYMid meet">
<metadata>
Created by potrace 1.15, written by Peter Selinger 2001-2017
</metadata>
<g transform="translate(0.000000,1000.000000) scale(0.100000,-0.100000)"
fill="#000000" stroke="none">
<path d="M3650 9976 c-30 -12 -120 -41 -200 -65 -228 -66 -384 -119 -530 -178
-186 -75 -682 -323 -678 -339 5 -23 893 -1693 900 -1694 3 0 55 30 115 66 190
116 391 211 678 321 374 143 483 190 556 240 l27 18 -399 825 c-219 453 -401
825 -406 826 -4 1 -33 -8 -63 -20z"/>
<path d="M5845 9390 c-43 -9 -62 -23 -330 -240 -132 -107 -254 -206 -270 -218
l-30 -24 88 -171 c48 -95 158 -308 244 -474 l155 -303 125 120 c69 66 164 150
212 185 142 107 217 138 474 195 53 12 97 24 97 28 0 4 -97 205 -214 447
l-213 440 -129 7 c-71 4 -140 9 -154 10 -14 2 -39 1 -55 -2z"/>
<path d="M8573 8595 c-81 -18 -135 -42 -224 -103 -41 -27 -98 -61 -127 -76
-55 -28 -175 -49 -224 -39 -15 3 -28 2 -28 -3 0 -5 184 -371 408 -814 384
-757 410 -805 433 -801 58 8 200 54 264 86 39 18 107 60 152 93 45 32 113 76
152 96 l71 37 -334 667 c-183 367 -355 713 -381 770 -54 115 -48 112 -162 87z"/>
<path d="M6837 8591 c-20 -4 -68 -20 -107 -36 -56 -23 -68 -31 -61 -44 4 -9
201 -389 436 -844 238 -460 424 -832 419 -836 -20 -18 -86 -32 -209 -46 -156
-17 -222 -46 -362 -154 -102 -79 -413 -367 -413 -383 0 -11 807 -1587 821
-1602 4 -5 53 20 111 56 184 116 378 220 528 283 88 37 226 108 276 142 l42
28 -190 410 c-105 226 -270 583 -368 794 -99 212 -177 388 -175 392 3 4 42 17
87 29 119 32 229 26 315 -18 89 -45 146 -41 232 16 10 7 -64 182 -349 818
-199 445 -366 816 -371 826 -8 15 -13 15 -55 2 -95 -28 -159 -12 -287 75 -43
28 -98 61 -124 72 -53 22 -140 32 -196 20z"/>
<path d="M1017 8415 c-296 -123 -594 -536 -940 -1301 l-78 -171 487 -899 c268
-495 490 -902 494 -907 3 -4 37 70 74 165 287 724 480 1067 752 1333 l92 90
-406 858 c-224 471 -409 857 -412 857 -3 -1 -31 -12 -63 -25z"/>
<path d="M4800 8336 c-25 -7 -56 -18 -70 -25 -42 -21 -150 -95 -150 -103 0 -4
180 -357 400 -784 220 -428 400 -779 400 -781 0 -8 -60 -24 -236 -64 -329 -73
-472 -136 -719 -320 -91 -68 -279 -234 -346 -305 l-37 -39 413 -799 412 -800
-79 -47 c-235 -142 -524 -388 -922 -787 l-208 -209 405 -769 c223 -423 415
-790 428 -816 13 -26 26 -47 29 -47 3 0 30 34 60 77 79 109 257 287 383 379
59 44 211 142 337 218 225 136 330 208 424 292 l48 42 -88 173 c-48 95 -239
471 -425 836 -187 365 -339 667 -339 672 0 29 477 282 829 440 232 104 360
167 443 216 l57 35 -400 794 c-220 436 -396 795 -392 798 29 16 125 29 185 24
164 -14 299 -120 458 -362 122 -184 176 -245 219 -245 22 0 74 56 100 109 32
63 91 224 91 249 0 13 -767 1488 -838 1610 l-25 43 -40 -67 c-47 -79 -115
-151 -151 -160 -67 -17 -115 27 -218 200 -39 67 -83 137 -97 156 -103 144
-220 201 -341 166z"/>
<path d="M3072 7655 c-232 -89 -431 -233 -716 -520 -179 -180 -463 -493 -459
-506 2 -5 203 -376 448 -825 245 -450 445 -820 445 -824 0 -3 -15 -11 -34 -18
-18 -7 -60 -30 -93 -51 -188 -121 -391 -387 -563 -736 -125 -254 -191 -431
-264 -702 l-25 -93 388 -757 c214 -417 401 -784 417 -815 l29 -58 139 273
c407 795 567 1041 789 1208 45 34 83 65 85 69 1 4 -189 382 -422 841 l-425
833 56 75 c79 107 300 325 414 409 53 39 198 136 323 216 227 145 325 216 411
295 l46 42 -457 827 c-251 455 -460 830 -463 834 -3 3 -34 -4 -69 -17z"/>
<path d="M9900 7418 c-102 -55 -161 -99 -211 -160 -40 -47 -146 -143 -198
-180 l-23 -16 165 -324 c90 -178 275 -541 410 -809 l247 -485 -58 -12 c-74
-15 -153 -63 -277 -167 -113 -95 -203 -147 -295 -171 -34 -8 -63 -14 -64 -12
-1 2 -15 35 -32 73 -17 39 -183 410 -369 826 l-338 757 -40 -14 c-22 -8 -62
-14 -89 -14 -45 0 -52 4 -112 59 -74 69 -111 83 -187 69 -44 -8 -172 -58 -187
-72 -2 -3 202 -402 454 -888 l457 -884 95 28 c114 34 181 37 206 9 15 -16 22
-18 42 -9 13 6 26 9 28 7 6 -7 866 -1672 866 -1677 0 -8 -217 8 -273 20 -55
12 -361 18 -372 7 -3 -4 78 -203 180 -442 l186 -435 52 5 c111 11 267 -55 420
-177 48 -39 180 -162 295 -273 114 -111 225 -214 247 -229 38 -26 115 -62 115
-55 0 2 -167 319 -371 703 -204 384 -385 727 -403 761 l-33 62 66 22 c130 42
212 97 384 257 115 108 170 142 227 145 l42 2 433 -838 c238 -461 435 -840
438 -843 12 -13 204 103 252 151 27 28 62 60 77 72 l28 21 -26 88 c-53 183
-168 470 -321 802 -105 230 -421 862 -430 862 -25 0 -229 -122 -283 -169 -119
-104 -151 -126 -161 -110 -5 8 -9 17 -9 20 0 4 -150 310 -333 680 -183 371
-366 743 -407 827 -49 101 -79 152 -89 152 -9 0 27 25 79 56 117 70 162 105
270 215 47 47 98 96 113 107 l29 21 -383 743 c-210 409 -398 773 -419 810
l-36 67 -74 -41z"/>
<path d="M8350 5146 c0 -8 900 -1749 910 -1759 4 -5 74 5 154 22 165 35 217
37 330 16 44 -8 81 -14 83 -12 2 2 -163 377 -366 833 l-369 829 -103 6 c-57 4
-156 19 -219 34 -91 22 -147 29 -267 33 -84 2 -153 2 -153 -2z"/>
<path d="M6476 5060 c-47 -17 -124 -60 -179 -101 -10 -7 32 -94 398 -834 164
-330 333 -673 376 -762 43 -90 82 -163 88 -163 5 0 21 4 35 10 52 19 146 29
200 20 178 -29 313 -167 516 -528 80 -143 143 -222 177 -222 55 0 114 91 167
255 l26 79 -436 906 c-240 498 -439 908 -443 912 -4 4 -31 -30 -61 -75 -130
-195 -208 -174 -355 95 -100 184 -174 296 -224 341 -90 81 -183 103 -285 67z"/>
<path d="M9225 3354 c-22 -8 -89 -20 -150 -25 -60 -6 -133 -19 -162 -29 -107
-38 -262 -156 -498 -382 l-129 -125 183 -449 c101 -247 184 -450 185 -451 1
-1 58 33 126 76 169 106 324 189 477 257 163 72 233 107 298 151 l53 34 -45
137 c-24 75 -90 274 -145 442 -56 168 -105 322 -111 343 -11 41 -20 44 -82 21z"/>
<path d="M6490 1128 c-3 -3 -122 -8 -265 -12 -813 -20 -1738 -104 -2035 -184
-87 -24 -122 -50 -100 -76 97 -117 1586 -186 2915 -136 783 30 1585 100 1825
160 104 26 133 36 158 57 27 21 27 22 7 37 -69 51 -427 98 -955 125 -107 6
-235 13 -285 15 -133 8 -1259 19 -1265 14z"/>
</g>
</svg>
