<?xml version="1.0" standalone="no"?>
<!DOCTYPE svg PUBLIC "-//W3C//DTD SVG 20010904//EN"
 "http://www.w3.org/TR/2001/REC-SVG-20010904/DTD/svg10.dtd">
<svg version="1.0" xmlns="http://www.w3.org/2000/svg"
 width="1280.000000pt" height="640.000000pt" viewBox="0 0 1280.000000 640.000000"
 preserveAspectRatio="xMidYMid meet">
<metadata>
Created by potrace 1.15, written by Peter Selinger 2001-2017
</metadata>
<g transform="translate(0.000000,640.000000) scale(0.100000,-0.100000)"
fill="#000000" stroke="none">
<path d="M630 5964 c-108 -17 -156 -31 -230 -66 -73 -34 -100 -55 -185 -142
-80 -80 -108 -117 -137 -176 -79 -163 -72 56 -76 -2290 -2 -1452 1 -2116 8
-2165 25 -162 86 -281 205 -400 92 -93 180 -144 302 -176 74 -19 192 -22 2068
-65 1095 -25 2022 -42 2062 -39 84 7 169 33 268 82 233 117 423 326 496 548
l24 70 3 747 3 748 2234 0 2235 0 0 -701 c0 -494 3 -713 11 -740 15 -48 90
-143 131 -166 29 -16 66 -18 280 -21 165 -2 261 1 290 8 49 14 114 75 150 142
l23 43 3 718 3 717 184 0 184 0 3 -707 3 -708 26 -50 c35 -68 128 -139 203
-155 37 -7 164 -10 383 -8 310 3 330 4 374 24 60 28 125 87 152 138 22 41 22
43 25 752 l3 711 59 6 c287 26 469 386 351 697 -32 83 -110 181 -188 234 -124
83 232 76 -3655 76 l-3467 0 -3 863 c-4 966 1 902 -80 1067 -56 115 -196 257
-308 313 -159 79 55 72 -2295 73 -1155 1 -2111 0 -2125 -2z"/>
</g>
</svg>
